# xmcd
#
# Track frame offsets:
#       150
#       13047
#       23652
#       42370
#       58010
#       68942
#       82370
#       94582
#       109877
#       131127
#       148017
#       166850
#       185284
#       198232
#       215352
#       228872
#
# Disc length: 3228 seconds
#
# Revision: 3
# Processed by: cddbd v1.5.1PL0 Copyright (c) Steve Scherf et al.
# Submitted via: MusiCat 1.1
#
DISCID=de0c9a10
DTITLE=Mantovani - La Paloma
DYEAR=1900
DGENRE=
TTITLE0=La Paloma
TTITLE1=Spanish Gypsy Dance
TTITLE2=Granada
TTITLE3=Be Mine Tonight (Noche de Ronda)
TTITLE4=Mon River
TTITLE5=Estrelita
TTITLE6=Adios Muchachos
TTITLE7=Tea For Two
TTITLE8=Barber of Seville
TTITLE9=Perfidia
TTITLE10=Vaya Con Dios
TTITLE11=Carnival of Venice
TTITLE12=Cara Mia
TTITLE13=Besame Mucho
TTITLE14=The Entertainer
TTITLE15=Quizas, Quizas, Quizas
EXTD=\n\n
EXTT0=
EXTT1=
EXTT2=
EXTT3=
EXTT4=
EXTT5=
EXTT6=
EXTT7=
EXTT8=
EXTT9=
EXTT10=
EXTT11=
EXTT12=
EXTT13=
EXTT14=
EXTT15=
PLAYORDER=
